<svg xmlns="http://www.w3.org/2000/svg" viewBox="0.73 .12 10 8.42" height="500" width="665" style="&#10;"><g fill="#6ABAE2"><path d="m5.715.132c-3.07 0-5.583 1.852-5.583 4.128 0 2.275 2.514 4.26 5.583 4.26 3.096 0 5.61-1.985 5.61-4.26 0-2.276-2.514-4.128-5.61-4.128zm0 .291c2.672 0 4.842 1.72 4.842 3.837 0 2.116-2.17 3.968-4.842 3.968s-4.842-1.852-4.842-3.968c0-2.117 2.17-3.837 4.842-3.837zm9.895 1.377-3.466"/><path d="m2.038 1.826-.239.238c.027 0 .08.053.08.053.026 0 .37.264.423.317-.027.026-.159.397-.159.397-.132.317-.265.635-.265.873v.053l.106.556v.026c.08.318.132.635.185.873 0 .08 0 .106.054.132.158.16.423.503.767 1.165 0 .026.026.026.026.053.027.08.08.132.106.159a.24.24 0 0 0 .265 0 .961.961 0 0 0 .37-.424c.026.027.106.106.106.133-.291.476.211.66.397.581-.106.291.29.53.635.371.053.185.212.238.37.265.133.026.344.052.662.026.502-.053.952-.185 1.137-.291.37-.185.583-.423.688-.582l.053-.053c.027.08.08.132.132.185a.511.511 0 0 0 .318.159c.08-.026.132-.053.159-.132.159-.397.529-.873.82-1.19l.026-.054c.08-.238.291-.794.424-1.085l.08-.238v-.053c.026-.08.026-.185.026-.264 0-.397-.053-.768-.185-1.085a1.417 1.417 0 0 0 -.16-.344l-.052-.106c.08-.132.317-.291.503-.397l.026-.026-.238-.239-.159.106c-.185.106-.344.16-.476.133 0-.027-.132-.106-.132-.106h-.187l.053.053c.106.132.16.211.239.344l.026.08.053.105.053.159.026.026.027.08.106.37c.105.397.132.714.158.979l-.026.026-.132.37c-.133.371-.292.848-.345 1.033v.026c-.37.37-.634.794-.74 1.059-.027.026-.027.026-.027.053-.026 0-.079-.053-.105-.08-.08-.08-.133-.238-.133-.423 0-.212.106-.397.265-.503.026-.026.026-.08.026-.08-.053-.264.027-.634.185-.74l.027-.027-.027-.026c-.476-.344-.687-.953-.714-1.43v-.052l-.053.027c-.026 0-.053.053-.053.053 0 .08-.026.185-.026.264 0 .239.052.45.079.53.053.238.185.476.397.687v.027c-.08.106-.132.344-.132.529 0 .053 0 .106.026.159-.211.158-.264.396-.29.555v.16l-.107.132v.026c-.211.264-.343.45-.687.608-.37.185-1.059.318-1.535.265-.159-.027-.159-.159-.159-.159 0-.026.027-.053.027-.079l.052-.027c.424.027.847-.026 1.032-.105l.054-.08.026-.026h-.053c-.37.08-1.111-.027-1.482-.186-.45-.185-.582-.344-.926-.794l-.106-.132a.813.813 0 0 0 -.079-.343c-.08-.106-.159-.16-.185-.186a.95.95 0 0 0 .053-.29.884.884 0 0 0 -.08-.398c.265-.185.397-.397.397-.635 0-.106-.079-.264-.079-.264l-.106-.053.026.08c.027.37-.344.634-.608.793l-.053.08h.026c.212.131.212.528.159.767l.027.026.106.08c.185.264.158.661-.053.873-.053.053-.053.053-.08.053-.026 0-.053-.08-.053-.106l-.079-.106a4.544 4.544 0 0 0 -.635-1.032l-.027-.027a10.93 10.93 0 0 0 -.211-1.243l-.053-.185v-.053c.026-.397.132-.688.291-1.032l.08-.212.079-.185v-.026a4.07 4.07 0 0 1 .344-.318l.079-.053-.106-.026s-.132.026-.29.106h-.027c-.133.053-.265.105-.37.052 0 0-.239-.132-.265-.158zm1.957 4.736c.053.053.239.212.318.264-.291.053-.397-.132-.318-.264zm.477.37c.132.08.344.132.529.185-.397.186-.635.027-.53-.185z"/><g stroke-width=".265"><path d="m3.81.767.08.08.211.185.132.132c.106.08.133.132.133.159 0 0-.027.026-.053.026l-.027.027-.026.08h.053c.317-.027.582.185.767.343.344.291.582.768.635 1.217l.238 1.27.106.186.026.052.027.08c.053.08.106.132.106.159l.132.079.185.185.053.053.08.08c0 .026.264.052.264.052.45.053.423.291.423.291s.265-.37-.37-.529c0 0-.185-.026-.212-.026l-.053-.106c-.026 0-.026-.026-.026-.026l-.212-.186-.08-.053c0-.026-.078-.211-.078-.211l-.106-.266a2.538 2.538 0 0 1 -.08-.397l-.026-.103-.08-.53.027-.105c.026-.212.106-.424.238-.662.132-.265.423-.45.423-.45.212-.132.53-.211.688-.238.08 0 .08-.053.106-.08v-.026h-.026a1.187 1.187 0 0 0 -.212-.053v-.026s.026-.027.053-.08l.132-.105.08-.08s.343-.317.37-.37l-.318-.08-.344.344c-.211.212-.476.477-.582.53-.29.105-.582.396-.714.635l-.08.211c-.079-.238-.185-.45-.343-.608a1.41 1.41 0 0 0 -.609-.424c-.131-.133-.581-.53-.82-.715z"/><path d="m5.715 4.498c.027-.106-.026-.238-.026-.238l-.027.08c-.026.079-.106.158-.238.21l-.027.027.45.635.027.027.106.132.185.106.053.026.211.133.185.106h.027l.291.026c.159 0 .265.08.318.106.158.132.079.317.079.317s.238-.211.08-.45c-.054-.079-.133-.158-.371-.185l-.291-.052-.159-.106-.212-.106-.052-.027-.16-.079z"/><path d="m5.45 5.847.053.027.186.08c.132.052.29.131.37.158l.212.132c.026 0 .238-.026.37 0 .185 0 .318.08.397.159a.282.282 0 0 1 -.027.291c.027-.026.212-.132.212-.344-.026-.185-.185-.344-.82-.344l-.159-.106-.053-.026-.264-.133-.238-.079-.053-.08c-.08-.132-.186-.264-.265-.37l-.026-.026s-.16-.212-.16-.238c.027-.106 0-.238 0-.238s-.026.052-.079.105c-.026.053-.158.133-.238.16l-.026.025.555.74z"/><path d="m4.736 6.138.106.106.212.106.185.106h.026l.133.08.211.105a.082.082 0 0 0 .053.027l.291-.027c.185 0 .37 0 .503.053.159.08.106.212.106.212s.158-.106.132-.239c-.027-.105-.159-.238-.582-.264h-.37l-.186-.106-.08-.053c-.026 0-.264-.132-.264-.132l-.185-.053c0-.027-.132-.212-.132-.212l-.053-.08-.159-.21-.08-.08c0-.027-.079-.132-.079-.132s.08-.133.08-.265l-.08.08c-.053.053-.238.132-.37.158h-.053l.423.556z"/></g></g></svg>